# xmcd
#
# Track frame offsets: 
#        150
#        16578
#        28145
#        37958
#        56654
#        68033
#        87440
#        103315
#        114756
#        142152
#        155390
#        178273
#        191149
#        212821
#
# Disc length: 3025 seconds
#
# Revision: 1
# Processed by: cddbd v1.5.2PL0 Copyright (c) Steve Scherf et al.
# Submitted via: ExactAudioCopy v0.95b3
#
DISCID=c40bcf0e
DTITLE=Various Artist - GNT New Jazz
DYEAR=2005
DGENRE=Pop-Jazz
TTITLE0=TWENTYSOMETHING - Jamie Cullum
TTITLE1=I'M YOUR GUY - John Pizzarrelli
TTITLE2=DEED I DO - Blossom Dearie
TTITLE3=BREAKING UP IS HARD TO DO - Reneé Olsted feat. Peter Cincotti
TTITLE4=I'VE GOT A CRUSH ON YOU - Steve Tyrrel
TTITLE5=LET'S FALL IN LOVE - Diana Krall
TTITLE6=LOVE ME OR LEAVE ME - Jane Monheit
TTITLE7=FOR ONCE IN MY LIFE - Michel Bublé
TTITLE8=DON'T LET ME LONELY TONIGHT - David Sandhorn feat. Lizz Wright
TTITLE9=MY DREAM IS YOU - April Barrows
TTITLE10=NEW YORK CITY - The Peter Malick Group feat. Norah Jones
TTITLE11=ALMOST LIKE BEING IN LOVE - Gwyneth Herbert
TTITLE12=HERE'S YOUR CHANCE - Alma Thomas
TTITLE13=WHERE OR WHEN - Peter Jones
EXTD=YEAR: 2005
EXTT0=
EXTT1=
EXTT2=
EXTT3=
EXTT4=
EXTT5=
EXTT6=
EXTT7=
EXTT8=
EXTT9=
EXTT10=
EXTT11=
EXTT12=
EXTT13=
PLAYORDER=
